<svg width="243" height="221" viewBox="0 0 243 221" fill="none" xmlns="http://www.w3.org/2000/svg">
<path d="M110.5 0C153.983 0 191.599 25.117 209.634 61.6338L209 61L171.79 98.209C166.08 69.5771 140.811 48 110.5 48C75.9822 48 48 75.9822 48 110.5C48 145.018 75.9822 173 110.5 173C140.518 173 165.591 151.838 171.619 123.619L208.875 160.875C190.558 196.573 153.382 221 110.5 221C49.4725 221 0 171.527 0 110.5C0 49.4725 49.4725 0 110.5 0Z" fill="white"/>
<path d="M175.832 111L209 77.8321L242.168 111L209 144.168L175.832 111Z" fill="#A7FFBE"/>
</svg>
